<?xml version="1.0" standalone="no"?>
<!DOCTYPE svg PUBLIC "-//W3C//DTD SVG 20010904//EN"
 "http://www.w3.org/TR/2001/REC-SVG-20010904/DTD/svg10.dtd">
<svg version="1.0" xmlns="http://www.w3.org/2000/svg"
 width="512.000000pt" height="512.000000pt" viewBox="0 0 512.000000 512.000000"
 preserveAspectRatio="xMidYMid meet">
<metadata>
Created by potrace 1.11, written by Peter Selinger 2001-2013
</metadata>
<g transform="translate(0.000000,512.000000) scale(0.100000,-0.100000)"
fill="#000000" stroke="none">
<path d="M475 5104 c-219 -53 -408 -243 -459 -464 -14 -57 -16 -308 -16 -2080
0 -1772 2 -2023 16 -2080 53 -226 247 -418 470 -465 103 -22 4044 -22 4147 0
228 48 424 244 472 471 22 104 22 4044 0 4148 -36 171 -172 345 -326 419 -148
72 16 67 -2224 66 -1727 -1 -2029 -3 -2080 -15z m1445 -464 l0 -160 -611 0
-611 0 -29 -29 -29 -29 0 -1862 0 -1862 29 -29 29 -29 611 0 611 0 0 -160 0
-161 -677 3 -678 3 -56 26 c-71 33 -125 87 -158 158 l-26 56 -3 1975 c-2 2166
-6 2022 57 2122 34 54 89 93 164 119 48 17 104 18 715 19 l662 0 0 -160z
m2691 129 c71 -33 125 -87 158 -158 l26 -56 0 -1995 0 -1995 -26 -56 c-33 -71
-87 -125 -158 -158 l-56 -26 -677 -3 -678 -3 0 161 0 160 611 0 611 0 29 29
29 29 0 1862 0 1862 -29 29 -29 29 -611 0 -611 0 0 160 0 161 678 -3 677 -3
56 -26z m-1686 -1283 c102 -28 192 -69 277 -126 45 -30 84 -60 86 -66 1 -7
-46 -62 -105 -124 l-108 -112 -67 45 c-93 62 -166 88 -269 94 -226 14 -381
-112 -451 -365 -30 -106 -32 -452 -5 -582 25 -121 79 -224 141 -271 105 -80
276 -91 423 -28 l43 18 0 211 0 210 -120 0 c-71 0 -120 4 -120 10 0 10 -26
199 -36 258 l-5 32 351 0 350 0 0 -453 0 -453 -78 -42 c-213 -113 -460 -164
-692 -142 -464 44 -695 321 -726 870 -19 340 76 624 272 814 99 97 254 178
399 210 93 20 353 16 440 -8z"/>
</g>
</svg>
