<?xml version="1.0" standalone="no"?>
<!DOCTYPE svg PUBLIC "-//W3C//DTD SVG 20010904//EN"
 "http://www.w3.org/TR/2001/REC-SVG-20010904/DTD/svg10.dtd">
<svg version="1.0" xmlns="http://www.w3.org/2000/svg"
 width="512.000000pt" height="512.000000pt" viewBox="0 0 512.000000 512.000000"
 preserveAspectRatio="xMidYMid meet">
<metadata>
Created by potrace 1.11, written by Peter Selinger 2001-2013
</metadata>
<g transform="translate(0.000000,512.000000) scale(0.100000,-0.100000)"
fill="#000000" stroke="none">
<path d="M565 4791 c-90 -22 -172 -90 -215 -176 l-25 -50 0 -2005 0 -2005 25
-50 c31 -64 91 -124 155 -155 l50 -25 683 -3 682 -3 0 161 0 160 -611 0 -611
0 -29 29 -29 29 0 1862 0 1862 29 29 29 29 611 0 611 0 0 160 0 160 -662 -1
c-365 -1 -676 -4 -693 -8z"/>
<path d="M3200 4640 l0 -160 611 0 611 0 29 -29 29 -29 0 -1862 0 -1862 -29
-29 -29 -29 -611 0 -611 0 0 -160 0 -161 683 3 682 3 50 25 c64 31 124 91 155
155 l25 50 0 2005 0 2005 -25 50 c-31 64 -91 124 -155 155 l-50 25 -682 3
-683 3 0 -161z"/>
<path d="M2485 3494 c-196 -43 -365 -148 -478 -297 -158 -206 -223 -493 -187
-822 35 -322 147 -536 344 -660 129 -82 287 -120 491 -118 207 1 385 46 568
141 l87 46 0 453 0 453 -350 0 c-192 0 -350 -1 -350 -3 0 -2 9 -68 20 -147 11
-79 20 -145 20 -147 0 -2 54 -3 120 -3 l120 0 -2 -212 -3 -213 -65 -24 c-53
-20 -85 -24 -171 -25 -102 -1 -108 0 -175 34 -78 40 -121 89 -154 177 -42 112
-53 196 -54 408 -1 175 2 211 21 287 44 174 116 274 241 335 74 37 78 38 187
37 129 -1 185 -18 293 -91 l67 -44 107 109 c60 61 108 115 108 121 0 34 -213
154 -340 192 -101 29 -359 36 -465 13z"/>
</g>
</svg>
