<?xml version="1.0" standalone="no"?>
<!DOCTYPE svg PUBLIC "-//W3C//DTD SVG 20010904//EN"
 "http://www.w3.org/TR/2001/REC-SVG-20010904/DTD/svg10.dtd">
<svg version="1.0" xmlns="http://www.w3.org/2000/svg"
 width="512.000000pt" height="512.000000pt" viewBox="0 0 512.000000 512.000000"
 preserveAspectRatio="xMidYMid meet">
<metadata>
Created by potrace 1.11, written by Peter Selinger 2001-2013
</metadata>
<g transform="translate(0.000000,512.000000) scale(0.100000,-0.100000)"
fill="#000000" stroke="none">
<path d="M265 5106 c-103 -32 -180 -98 -228 -195 l-32 -66 0 -2285 0 -2285 27
-57 c37 -79 98 -142 177 -181 l66 -32 777 -3 778 -3 0 184 0 184 -686 -1
c-504 -1 -694 2 -715 11 -15 6 -36 24 -45 39 -17 25 -18 130 -19 2138 0 1857
2 2115 15 2141 31 62 7 60 763 59 l687 -1 0 184 0 183 -762 -1 c-581 0 -773
-4 -803 -13z"/>
<path d="M3292 4938 l3 -183 691 -1 c643 0 694 -2 719 -18 15 -10 32 -30 38
-45 9 -21 12 -549 12 -2138 -1 -2004 -2 -2112 -19 -2137 -10 -15 -30 -33 -45
-39 -21 -9 -211 -12 -715 -11 l-686 1 0 -184 0 -184 778 3 777 3 66 32 c79 39
140 102 177 181 l27 57 0 2285 0 2285 -32 66 c-39 79 -102 140 -181 177 l-57
27 -778 3 -777 3 2 -183z"/>
<path d="M2502 3633 c-375 -76 -640 -319 -746 -686 -38 -129 -53 -263 -50
-434 5 -260 42 -439 126 -607 151 -303 440 -458 839 -450 87 2 123 5 229 20
49 7 218 53 260 70 81 34 240 116 247 127 4 7 8 243 9 524 l0 513 -381 2
c-210 2 -389 1 -399 0 -15 -3 -17 -12 -10 -70 3 -37 8 -76 10 -87 2 -11 7 -40
10 -65 3 -25 9 -63 13 -85 l7 -40 119 -2 c66 -2 127 -4 135 -6 13 -2 15 -36
15 -236 l1 -234 -51 -22 c-75 -34 -139 -44 -251 -42 -91 2 -106 5 -166 35 -75
36 -134 96 -168 169 -27 57 -58 175 -65 251 -4 31 -8 68 -11 82 -7 40 -6 290
1 355 31 279 127 446 305 533 70 34 82 36 180 39 155 4 247 -25 382 -120 l58
-40 46 49 c26 27 82 86 126 132 93 96 94 89 -20 165 -131 88 -249 134 -412
162 -108 19 -291 18 -388 -2z"/>
</g>
</svg>
